<svg width="36" height="36" viewBox="0 0 36 36" fill="none" xmlns="http://www.w3.org/2000/svg">
<path d="M13.5 31.5H22.5" stroke="#0F0F0F" stroke-linecap="round"/>
<path d="M18 31.5V25.5" stroke="#0F0F0F" stroke-linecap="round"/>
<path d="M8 13.9286C8 13.4788 8.00092 13.1881 8.02792 12.9724C8.05337 12.7691 8.09494 12.7029 8.12718 12.6668C8.13964 12.6529 8.15288 12.6396 8.16683 12.6272C8.2029 12.5949 8.26909 12.5534 8.47239 12.5279C8.68807 12.5009 8.97876 12.5 9.42857 12.5H26.5714C27.0212 12.5 27.3119 12.5009 27.5276 12.5279C27.7309 12.5534 27.7971 12.5949 27.8332 12.6272C27.8471 12.6396 27.8604 12.6529 27.8728 12.6668L28.2456 12.3337L27.8728 12.6668C27.9051 12.7029 27.9466 12.7691 27.9721 12.9724C27.9991 13.1881 28 13.4788 28 13.9286V15C28 17.1171 27.9994 18.6673 27.8762 19.8786C27.7538 21.0816 27.5146 21.8948 27.0731 22.5556C26.6718 23.1562 26.1562 23.6718 25.5556 24.0731C24.8948 24.5146 24.0816 24.7538 22.8786 24.8762C21.6673 24.9994 20.1171 25 18 25C15.8829 25 14.3327 24.9994 13.1214 24.8762C11.9184 24.7538 11.1052 24.5146 10.4444 24.0731C9.84382 23.6718 9.32819 23.1562 8.92692 22.5556C8.48537 21.8948 8.24621 21.0816 8.12383 19.8786C8.0006 18.6673 8 17.1171 8 15V13.9286Z" fill="#EC2200" stroke="black" stroke-linecap="round"/>
<path d="M17.5192 17.8626C17.4434 18.1282 17.5971 18.4049 17.8626 18.4808C18.1282 18.5566 18.4049 18.4029 18.4808 18.1374L17.5192 17.8626ZM20.7305 8.4432L20.2498 8.30584L20.7305 8.4432ZM21.9108 7.13569L22.0965 7.59993L21.9108 7.13569ZM21.0845 7.57626L20.7133 7.24122L20.7133 7.24122L21.0845 7.57626ZM18.4808 18.1374L21.2113 8.58056L20.2498 8.30584L17.5192 17.8626L18.4808 18.1374ZM22.0965 7.59993L28.6857 4.96424L28.3143 4.03576L21.7251 6.67145L22.0965 7.59993ZM21.2113 8.58056C21.3571 8.07018 21.3961 7.9772 21.4556 7.91129L20.7133 7.24122C20.4619 7.51979 20.3686 7.88994 20.2498 8.30584L21.2113 8.58056ZM21.7251 6.67145C21.3235 6.83209 20.9648 6.96266 20.7133 7.24122L21.4556 7.91129C21.5151 7.84538 21.6036 7.79706 22.0965 7.59993L21.7251 6.67145Z" fill="black"/>
</svg>
