<svg width="36" height="36" viewBox="0 0 36 36" fill="none" xmlns="http://www.w3.org/2000/svg">
<path fill-rule="evenodd" clip-rule="evenodd" d="M7.91169 15.1893C7.5 16.0844 7.5 17.1027 7.5 19.1393V25.4999C7.5 28.3283 7.5 29.7425 8.37868 30.6212C9.23108 31.4736 10.5875 31.4991 13.25 31.4999V24C13.25 22.6193 14.3693 21.5 15.75 21.5H20.25C21.6307 21.5 22.75 22.6193 22.75 24V31.4999C25.4125 31.4991 26.7689 31.4736 27.6213 30.6212C28.5 29.7425 28.5 28.3283 28.5 25.4999V19.1393C28.5 17.1027 28.5 16.0844 28.0883 15.1893C27.6766 14.2942 26.9035 13.6314 25.3571 12.306L23.8571 11.0203C21.0621 8.6246 19.6647 7.42676 18 7.42676C16.3353 7.42676 14.9379 8.6246 12.1429 11.0203L10.6429 12.306C9.09655 13.6314 8.32338 14.2942 7.91169 15.1893ZM20.75 31.4999V24C20.75 23.7239 20.5261 23.5 20.25 23.5H15.75C15.4739 23.5 15.25 23.7239 15.25 24V31.4999H20.75Z" fill="black"/>
</svg>
