<svg width="36" height="36" viewBox="0 0 36 36" fill="none" xmlns="http://www.w3.org/2000/svg">
<path d="M7.5 19.1394C7.5 17.1028 7.5 16.0845 7.91169 15.1894C8.32338 14.2942 9.09655 13.6315 10.6429 12.3061L12.1429 11.0204C14.9379 8.6247 16.3353 7.42685 18 7.42685C19.6647 7.42685 21.0621 8.6247 23.8571 11.0204L25.3571 12.3061C26.9035 13.6315 27.6766 14.2942 28.0883 15.1894C28.5 16.0845 28.5 17.1028 28.5 19.1394V25.5C28.5 28.3284 28.5 29.7426 27.6213 30.6213C26.7426 31.5 25.3284 31.5 22.5 31.5H13.5C10.6716 31.5 9.25736 31.5 8.37868 30.6213C7.5 29.7426 7.5 28.3284 7.5 25.5V19.1394Z" stroke="black"/>
<path d="M21.75 31.5V23.5C21.75 22.9477 21.3023 22.5 20.75 22.5H15.25C14.6977 22.5 14.25 22.9477 14.25 23.5V31.5" stroke="black" stroke-linecap="round" stroke-linejoin="round"/>
</svg>
