<svg width="45" height="45" viewBox="0 0 45 45" fill="none" xmlns="http://www.w3.org/2000/svg">
<path d="M19.0197 12.4267C20.4946 8.74981 21.232 6.91138 22.5001 6.91138C23.7682 6.91138 24.5057 8.74981 25.9806 12.4267L26.0492 12.5979C26.8825 14.6752 27.2991 15.7138 28.1482 16.3451C28.9973 16.9764 30.1119 17.0762 32.3411 17.2758L32.7441 17.3119C36.3925 17.6387 38.2167 17.802 38.607 18.9626C38.9974 20.1232 37.6426 21.3557 34.9332 23.8208L34.0289 24.6435C32.6573 25.8913 31.9715 26.5153 31.6519 27.333C31.5923 27.4855 31.5427 27.6418 31.5035 27.8008C31.2934 28.6533 31.4942 29.5584 31.8959 31.3687L32.0209 31.9322C32.759 35.2591 33.1281 36.9225 32.4837 37.64C32.2429 37.9081 31.93 38.1011 31.5823 38.196C30.6519 38.4499 29.331 37.3735 26.6892 35.2209C24.9545 33.8073 24.0872 33.1006 23.0914 32.9416C22.6997 32.879 22.3005 32.879 21.9088 32.9416C20.913 33.1006 20.0457 33.8073 18.311 35.2209C15.6692 37.3735 14.3483 38.4499 13.4179 38.196C13.0703 38.1011 12.7573 37.9081 12.5165 37.64C11.8721 36.9225 12.2412 35.2591 12.9793 31.9322L13.1043 31.3687C13.506 29.5585 13.7068 28.6533 13.4967 27.8008C13.4575 27.6418 13.4079 27.4855 13.3483 27.333C13.0287 26.5153 12.3429 25.8913 10.9713 24.6435L10.067 23.8208C7.35758 21.3557 6.00285 20.1232 6.39319 18.9626C6.78352 17.802 8.60772 17.6387 12.2561 17.3119L12.6591 17.2758C14.8883 17.0762 16.003 16.9764 16.8521 16.3451C17.7011 15.7138 18.1178 14.6752 18.951 12.5979L19.0197 12.4267Z" fill="#D8DC00" stroke="#D8DC00"/>
</svg>
